<svg xmlns="http://www.w3.org/2000/svg" width="512" height="512" viewBox="0 0 512 512" version="1.1">
	<path d="M 166.750 0.662 C 167.438 0.940, 168.563 0.940, 169.250 0.662 C 169.938 0.385, 169.375 0.158, 168 0.158 C 166.625 0.158, 166.063 0.385, 166.750 0.662 M 114.250 1.689 C 115.213 1.941, 116.787 1.941, 117.750 1.689 C 118.713 1.438, 117.925 1.232, 116 1.232 C 114.075 1.232, 113.287 1.438, 114.250 1.689 M 126.750 1.706 C 127.987 1.944, 130.012 1.944, 131.250 1.706 C 132.488 1.467, 131.475 1.272, 129 1.272 C 126.525 1.272, 125.513 1.467, 126.750 1.706 M 136.269 1.693 C 137.242 1.947, 138.592 1.930, 139.269 1.656 C 139.946 1.382, 139.150 1.175, 137.500 1.195 C 135.850 1.215, 135.296 1.439, 136.269 1.693 M 143.813 1.683 C 144.534 1.972, 145.397 1.936, 145.729 1.604 C 146.061 1.272, 145.471 1.036, 144.417 1.079 C 143.252 1.127, 143.015 1.364, 143.813 1.683 M 93.269 2.693 C 94.242 2.947, 95.592 2.930, 96.269 2.656 C 96.946 2.382, 96.150 2.175, 94.500 2.195 C 92.850 2.215, 92.296 2.439, 93.269 2.693 M 185.500 16.756 C 179.450 18.874, 172.214 22.158, 169.420 24.053 C 155.614 33.419, 144.867 53.879, 143.344 73.692 L 142.705 82 137.163 82 C 131.354 82, 121.936 83.426, 116 85.205 C 104.795 88.561, 74.837 105.106, 65.186 113.266 C 59.863 117.766, 54.122 125.382, 51.816 131 C 49.513 136.611, 47 151.836, 47 160.175 C 47 170.464, 50.153 202.117, 52.910 219.500 C 55.690 237.031, 54.372 261.506, 49.337 285.858 C 48.348 290.640, 48.157 293.557, 48.791 294.191 C 51.925 297.325, 59.916 278.222, 63.217 259.708 C 65.135 248.948, 65.352 244.713, 65.046 224 C 64.291 172.884, 64.499 160.889, 66.273 153 C 69.058 140.612, 74.131 131.820, 84.474 121.452 C 94.599 111.303, 97.354 109.748, 114.699 104.397 C 130.162 99.627, 139.590 98.907, 146.676 101.956 C 149.475 103.160, 153.027 105.462, 154.570 107.073 C 158.936 111.631, 160.218 110.999, 159.284 104.750 C 158.853 101.862, 158.500 92.525, 158.500 84 C 158.500 69.945, 158.710 68.074, 160.750 63.934 C 161.988 61.423, 163 58.823, 163 58.156 C 163 55.760, 169.132 44.860, 172.704 40.906 C 177.045 36.101, 179.372 34.815, 189.682 31.522 C 200.715 27.999, 205.971 28.238, 219.382 32.875 C 225.546 35.006, 232.370 37.660, 234.545 38.772 C 239.873 41.497, 250.143 52.374, 253.336 58.676 C 259.888 71.607, 260.529 88.012, 255.067 102.979 C 251.496 112.763, 249.803 115.281, 239.832 125.628 C 235.524 130.098, 231.999 134.148, 231.998 134.628 C 231.997 135.108, 229.830 137.930, 227.182 140.900 L 222.367 146.301 221.026 142.900 C 220.288 141.030, 217.891 137.025, 215.699 134 C 207.925 123.269, 203.452 119.578, 196.250 117.947 C 193.468 117.317, 193 117.483, 193 119.105 C 193 120.147, 193.412 121, 193.915 121 C 195.705 121, 202.362 131.313, 204.662 137.650 C 206.346 142.291, 207 146.226, 207 151.730 C 207 160.102, 205.342 164.770, 200.169 170.966 L 197.275 174.433 195.483 170.966 C 192.763 165.704, 186.689 157.812, 182.585 154.209 C 175.252 147.771, 162.949 142.759, 151.388 141.501 C 146.417 140.960, 145.168 141.119, 144.693 142.357 C 144.264 143.475, 146.414 145.122, 152.805 148.575 C 171.119 158.468, 179.741 167.973, 182.033 180.798 C 183.382 188.347, 182.935 201.024, 181.168 205.301 L 180.010 208.103 176.255 205.109 C 170.230 200.306, 160.811 195, 158.309 195 C 155.635 195, 155.263 197.143, 157.599 199.082 C 161.343 202.190, 168.324 212.492, 170.090 217.516 C 173.388 226.899, 172.732 232.617, 166.500 248.820 C 163.475 256.685, 161 263.904, 161 264.863 C 161 265.821, 159.270 270.182, 157.156 274.553 C 152.397 284.391, 145.118 291.460, 131.485 299.483 C 122.229 304.930, 107.417 310.954, 99.750 312.389 C 94.057 313.454, 95.292 316.179, 102 317.351 C 109.555 318.671, 121.960 316.382, 133.488 311.540 C 139.531 309.001, 144.908 306.492, 145.438 305.962 C 146.964 304.436, 147.680 304.808, 148.870 307.750 C 152.082 315.688, 152.074 329.128, 148.852 336.572 C 146.279 342.519, 137.177 355.617, 133 359.386 C 128.192 363.724, 116.849 369.334, 109.395 371.060 C 95.025 374.388, 72.289 369.665, 61.383 361.087 C 57.115 357.729, 50.937 349.656, 47.541 342.998 C 42.257 332.639, 41 327.045, 41 313.901 C 41 303.798, 41.705 298.639, 46.065 276.832 C 51.592 249.190, 51.695 247.021, 48.391 227.741 C 46.722 217.997, 44.960 213.042, 42.415 210.929 C 40.824 209.609, 40.761 210.294, 41.434 221.578 C 41.887 229.166, 41.750 235.863, 41.065 239.642 C 40.466 242.945, 39.772 248.989, 39.524 253.074 C 39.275 257.158, 37.921 265.900, 36.515 272.500 C 30.702 299.782, 29.970 304.448, 29.420 317.725 C 28.964 328.736, 29.181 332.910, 30.469 337.879 C 34.907 355.008, 49.146 371.862, 65.445 379.281 C 72.548 382.514, 85.354 385.565, 93 385.845 C 106.512 386.340, 127.498 380.982, 138.500 374.228 C 148.817 367.894, 161.241 351.812, 169.576 334 C 175.561 321.212, 175.773 317.237, 171.263 302.424 C 168.362 292.894, 168.247 291.893, 169.151 283.924 C 171.274 265.203, 173.839 253.908, 179.242 239.500 C 183.050 229.343, 186.618 223.024, 194.671 212.169 C 220.076 177.926, 237.135 160.245, 245.033 159.972 C 249.839 159.806, 254.960 160.722, 256.536 162.030 C 257.264 162.634, 259.128 163.292, 260.679 163.494 C 264.228 163.954, 265.992 164.682, 273.750 168.889 C 277.188 170.753, 280 172.824, 280 173.490 C 280 175.202, 271.642 185.997, 262.573 196 C 251.050 208.709, 230.506 240.171, 222.734 257.012 C 216.175 271.225, 213.250 281.391, 215.084 283.602 C 216.891 285.779, 219.145 283.273, 223.569 274.165 C 227.361 266.357, 232.713 257.603, 245.880 237.672 C 255.691 222.821, 257.415 220.661, 271.465 205.605 C 285.658 190.397, 296.676 181.747, 310.140 175.240 C 315.536 172.633, 319.821 170.050, 319.663 169.500 C 319.505 168.950, 316.704 167.693, 313.438 166.707 C 292.920 160.513, 275.988 154.416, 265.847 149.569 C 259.438 146.506, 253.670 144, 253.030 144 C 251.553 144, 252.548 140.709, 255.448 136 C 262.593 124.400, 270.918 101.575, 272.516 89.205 C 274.980 70.130, 270.685 52.668, 261.205 43.216 C 249.235 31.282, 225.195 15.917, 216.500 14.644 C 214.300 14.321, 208.900 13.798, 204.500 13.482 C 197.032 12.944, 195.769 13.162, 185.500 16.756 M 1.158 55 C 1.158 56.375, 1.385 56.938, 1.662 56.250 C 1.940 55.563, 1.940 54.438, 1.662 53.750 C 1.385 53.063, 1.158 53.625, 1.158 55 M 1.158 60 C 1.158 61.375, 1.385 61.938, 1.662 61.250 C 1.940 60.563, 1.940 59.438, 1.662 58.750 C 1.385 58.063, 1.158 58.625, 1.158 60 M 1.079 68.583 C 1.127 69.748, 1.364 69.985, 1.683 69.188 C 1.972 68.466, 1.936 67.603, 1.604 67.271 C 1.272 66.939, 1.036 67.529, 1.079 68.583 M 316.485 177.250 C 316.237 177.938, 315.356 180.453, 314.529 182.841 C 312.694 188.137, 302.032 206.850, 297.998 211.857 C 296.383 213.861, 292.715 218.650, 289.845 222.500 C 283.215 231.396, 274.896 240.953, 263.248 253.054 C 251.464 265.297, 241.218 278.269, 238.804 284 C 237.762 286.475, 236.454 289.323, 235.897 290.328 C 235.341 291.334, 234.494 295.384, 234.015 299.328 C 233.043 307.341, 231.660 312.500, 229.922 314.594 C 227.659 317.320, 219.354 319.018, 213.692 317.911 C 210.837 317.353, 202.099 316.628, 194.275 316.300 C 181.504 315.765, 179.985 315.877, 179.402 317.395 C 179.045 318.325, 179.026 319.359, 179.359 319.692 C 179.692 320.025, 184.810 320.673, 190.732 321.131 C 202.670 322.054, 207.470 322.997, 236.442 330.106 C 247.411 332.798, 258.436 334.990, 260.942 334.978 C 266.639 334.951, 272.572 332.257, 276.592 327.872 C 284.392 319.363, 298.123 292.182, 302.795 276 C 303.351 274.075, 305.167 268.675, 306.831 264 C 312.311 248.605, 315.597 224.939, 314.086 211.750 C 313.938 210.456, 310.999 210.935, 311.022 212.250 C 311.062 214.499, 301.811 248.229, 297.926 260 C 295.838 266.325, 291.206 278.700, 287.632 287.500 C 281.768 301.939, 280.650 303.948, 276.169 308.092 C 263.914 319.426, 248.251 321.186, 246.422 311.434 C 246.054 309.476, 246.005 305.997, 246.313 303.703 C 246.973 298.779, 255.707 281.004, 259.924 276 C 277.639 254.981, 290.050 239.293, 293.546 233.500 C 294.542 231.850, 298.580 225.550, 302.520 219.500 C 313.563 202.545, 319.330 190.183, 319.825 182.407 C 320.172 176.958, 319.987 176, 318.585 176 C 317.679 176, 316.734 176.563, 316.485 177.250 M 453.499 198.814 C 450.214 199.940, 436.764 211.572, 433 216.541 C 431.075 219.083, 428.803 221.935, 427.951 222.880 C 424.979 226.176, 405.429 251.577, 396.310 263.990 C 385.500 278.706, 381.693 283.626, 373.179 293.884 C 369.703 298.073, 364.343 304.988, 361.268 309.250 C 358.194 313.512, 355.182 317, 354.575 317 C 353.968 317, 352.679 318.688, 351.710 320.750 C 350.741 322.813, 348.272 326.556, 346.224 329.069 C 344.176 331.582, 339.022 337.958, 334.771 343.237 C 316.913 365.415, 301.115 380.843, 287.500 389.401 C 276.149 396.535, 258.183 406.450, 243.600 413.628 C 235.938 417.399, 231.833 420.258, 225.438 426.276 C 212.777 438.191, 209.626 444.276, 207.581 460.761 C 206.763 467.356, 208.546 472.934, 214.155 481.325 C 219.328 489.062, 222.679 492.036, 231.500 496.719 C 237.782 500.053, 239.197 500.416, 245.291 500.254 C 253.188 500.043, 263.371 497.694, 270.540 494.429 C 276.992 491.490, 291.440 478.286, 296.097 471.072 C 307.611 453.236, 309.371 449.120, 322.108 410.254 C 330.127 385.782, 341.787 363.384, 350.611 355.500 C 351.227 354.950, 354.067 351.350, 356.923 347.500 C 368.970 331.260, 368.520 331.823, 382.500 315.471 C 387.393 309.748, 400.593 292.692, 409.759 280.250 C 412.291 276.813, 414.680 274, 415.068 274 C 415.456 274, 418.395 270.738, 421.600 266.750 C 424.805 262.762, 430.202 256.344, 433.593 252.486 C 438.794 246.568, 449.936 230.757, 457.445 218.639 C 458.515 216.913, 460.878 213.523, 462.695 211.106 C 466.589 205.929, 466.901 202.637, 463.698 200.538 C 460.874 198.687, 456.182 197.894, 453.499 198.814 M 448.803 210.321 C 444.189 213.842, 435.591 222.607, 431.163 228.302 C 429.698 230.186, 424.190 237.076, 418.923 243.613 C 410.878 253.598, 405.364 261.129, 399.500 270.141 C 395.749 275.907, 372.613 305.632, 370.033 308 C 369.409 308.573, 361.250 319.376, 359 322.608 C 357.577 324.652, 350.786 333.184, 347.146 337.500 C 344.123 341.085, 333.533 355.390, 330.488 360 C 326.707 365.726, 310.259 382.091, 299.661 390.672 C 293.968 395.281, 287.642 399.098, 278.741 403.297 C 271.724 406.607, 266.110 409.443, 266.265 409.598 C 266.420 409.754, 269.194 409.008, 272.429 407.940 C 279.674 405.550, 287.417 405.506, 291.775 407.831 C 295.527 409.832, 301.586 417.838, 302.501 422.004 C 303.619 427.093, 301.024 440.915, 297.169 450.408 C 293.421 459.639, 292.319 461.287, 283.592 470.722 C 275.210 479.783, 258.947 488.972, 251.212 489.015 C 249.082 489.027, 248.822 489.242, 250 490.014 C 251.524 491.012, 255.873 490.568, 259.500 489.042 C 273.629 483.099, 277.428 480.734, 284.830 473.270 C 293.199 464.831, 296.179 459.613, 303.119 441.244 C 307.085 430.747, 307.911 427.784, 310.987 413 C 313.158 402.571, 316.470 393.333, 320.754 385.765 C 322.539 382.611, 324 379.511, 324 378.877 C 324 378.242, 326.499 374.460, 329.554 370.472 C 332.608 366.484, 335.179 362.272, 335.267 361.111 C 335.354 359.950, 335.892 358.996, 336.463 358.991 C 337.033 358.986, 339.750 356.024, 342.500 352.409 C 345.250 348.794, 349.184 343.825, 351.243 341.365 C 353.302 338.906, 355.505 335.925, 356.139 334.741 C 356.773 333.556, 360.517 328.517, 364.460 323.544 C 368.402 318.570, 373.797 311.350, 376.448 307.500 C 379.100 303.650, 383.846 297.800, 386.995 294.500 C 402.080 278.693, 417.216 261.511, 424.436 252 C 441.508 229.510, 441.153 229.997, 451.332 215.150 C 457.159 206.650, 456.146 204.716, 448.803 210.321 M 257.500 413.566 C 254.200 415.455, 249.759 417.938, 247.630 419.082 C 241.640 422.303, 229.868 431.295, 225.992 435.609 C 224.070 437.749, 220.984 441.870, 219.133 444.768 C 215.797 449.992, 215.772 450.116, 216.197 459.768 C 216.569 468.222, 217.036 470.301, 219.753 475.603 C 222.333 480.638, 224.085 482.528, 229.767 486.411 C 236.174 490.789, 237.031 491.095, 242.077 490.808 L 247.500 490.500 241.590 489.055 C 233.942 487.185, 225.227 480.760, 222.290 474.828 C 221.111 472.447, 219.648 467.709, 219.038 464.297 C 217.972 458.333, 218.054 457.805, 221.171 450.556 C 222.954 446.409, 226.008 441.373, 227.956 439.365 C 231.546 435.666, 241.579 427.795, 252.002 420.500 C 259.216 415.451, 265.757 409.980, 264.478 410.065 C 263.940 410.101, 260.800 411.676, 257.500 413.566 M 275.500 414.926 C 259.500 419.472, 240.920 434.030, 229.544 450.935 C 221.914 462.273, 226.461 474.150, 240.291 479.011 C 243.404 480.105, 247.016 481, 248.320 481 C 252.604 481, 261.829 477.361, 267.599 473.396 C 281.122 464.103, 285.907 457.645, 291.977 440.500 C 295.704 429.969, 295.914 426.712, 293.206 421.406 C 289.306 413.764, 285.060 412.210, 275.500 414.926 M 3.500 492 C 3.160 492.550, 3.359 493, 3.941 493 C 4.523 493, 5 492.550, 5 492 C 5 491.450, 4.802 491, 4.559 491 C 4.316 491, 3.840 491.450, 3.500 492 M 4 495 C 4.825 495.533, 6.175 495.945, 7 495.914 C 7.989 495.878, 7.819 495.567, 6.500 495 C 3.751 493.819, 2.172 493.819, 4 495 M 3.583 498.643 C 2.665 501.037, 3.381 501.221, 4.796 498.955 C 5.468 497.880, 5.611 497, 5.115 497 C 4.620 497, 3.930 497.739, 3.583 498.643 M 16.733 498.124 C 17.412 498.808, 18.219 499.115, 18.526 498.807 C 18.834 498.499, 18.279 497.940, 17.293 497.564 C 15.868 497.022, 15.753 497.136, 16.733 498.124 M 13 503.892 C 13 504.566, 12.480 504.797, 11.845 504.405 C 11.101 503.945, 10.964 504.132, 11.458 504.933 C 12.004 505.815, 12.536 505.864, 13.296 505.104 C 13.885 504.515, 14.059 503.726, 13.683 503.350 C 13.308 502.974, 13 503.218, 13 503.892 M 20 505.031 C 20 505.564, 20.675 506, 21.500 506 C 22.325 506, 23 505.823, 23 505.607 C 23 505.391, 22.325 504.955, 21.500 504.638 C 20.675 504.322, 20 504.499, 20 505.031 M 24.550 507.081 C 24.804 507.493, 24.447 508.057, 23.756 508.336 C 22.974 508.651, 22.925 508.872, 23.628 508.921 C 24.248 508.964, 25.253 508.400, 25.862 507.667 C 26.697 506.661, 26.615 506.333, 25.528 506.333 C 24.736 506.333, 24.296 506.670, 24.550 507.081" stroke="none" fill="black" fill-rule="evenodd"/>
</svg>